<?xml version="1.0" encoding="utf-8"?>
<!-- Generator: Adobe Illustrator 16.0.0, SVG Export Plug-In . SVG Version: 6.00 Build 0)  -->
<!DOCTYPE svg PUBLIC "-//W3C//DTD SVG 1.1//EN" "http://www.w3.org/Graphics/SVG/1.1/DTD/svg11.dtd">
<svg version="1.1" id="Layer_1" xmlns="http://www.w3.org/2000/svg" xmlns:xlink="http://www.w3.org/1999/xlink" x="0px" y="0px"
	 width="92.998px" height="108.412px" viewBox="0 0 92.998 108.412" enable-background="new 0 0 92.998 108.412"
	 xml:space="preserve">
<g>
	<g>
		<g>
			<path fill="#0EC9AC" d="M92.998,55.702L69.734,45L48.902,67.835l3.381-10.466l-5.785-16.893l-5.783,16.893l3.381,10.466
				L23.264,45L0,55.702L19.979,68.31H7.254l17.957,13.675l13.438,26.428l4.404-0.762l-0.982-5.167l-1.355-2.215h5.783h5.785
				l-1.355,2.215l-0.984,5.167l4.404,0.762l13.439-26.428L85.744,68.31H73.018L92.998,55.702z M32.086,65.336l-3.092,0.908
				l-6.271-5.479l9.422,0.979l8.078,7.799L32.086,65.336z M64.002,66.244l-3.092-0.908l-8.137,4.207l8.078-7.799l9.422-0.979
				L64.002,66.244z"/>
			<g>
				<polygon fill="#0EC9AC" points="80.146,27.651 66.705,18.046 84.543,0.738 				"/>
				<polygon fill="#0EC9AC" points="12.852,26.913 26.293,17.309 8.455,0 				"/>
			</g>
		</g>
		<g>
			<path fill="#C2E6EA" d="M40.715,57.369l3.381,10.466L23.264,45L0,55.702L19.979,68.31H7.254l17.957,13.675l13.438,26.428
				l4.404-0.762l-0.982-5.167l-1.355-2.215h5.783V40.477L40.715,57.369z M32.086,65.336l-3.092,0.908l-6.271-5.479l9.422,0.979
				l8.078,7.799L32.086,65.336z"/>
			<polygon fill="#C2E6EA" points="26.293,17.309 8.455,0 12.852,26.913 			"/>
		</g>
	</g>
</g>
</svg>
